<?xml version="1.0" encoding="UTF-8"?>
<!--
  DERIVED ARTWORK — do not hand-edit, and do not treat as a source of truth.

  The arch housing on its own, solid — the letter NOT knocked out of it.

  Taken from the first <path> of kenworthy-k.svg, which is two subpaths under
  fill-rule="evenodd" (the arch, and the K as the hole punched in it). This is
  the larger, containing subpath — bbox {"x":63.3,"y":71.3,"w":85.8,"h":112}.

  The viewBox is copied from kenworthy-k.svg unchanged, so this overlays the
  original exactly with no transform. If that file is ever redrawn this does
  not follow it — regenerate, and check the parts still register at size.
-->
<svg xmlns="http://www.w3.org/2000/svg" viewBox="0 0 212.4 189.8">
  <path fill="#414042" fill-rule="evenodd" d="M63.3,183.3c0-26.5,0-53,0-79.5,0-7.1,2.1-13.6,5.9-19.5,3.4-5.3,7.8-9.5,13.8-11.6,2.1-.7,4.4-1.3,6.6-1.3,11-.1,21.9-.2,32.8,0,5.3,0,10,2.2,14.1,5.6,7,6,10.6,13.7,11.9,22.6.4,2.7.7,5.4.7,8.1,0,25.2,0,50.4,0,75.6,0,0-85.8,0-85.8,0Z"/>
</svg>
